# xmcd
#
# Track frame offsets: 
#        150
#        17170
#        36145
#        55235
#        75625
#        92855
#        108017
#        128887
#        146105
#        168727
#        184210
#        211067
#
# Disc length: 2871 seconds
#
# Revision: 3
# Processed by: cddbd v1.5.2PL0 Copyright (c) Steve Scherf et al.
# Submitted via: ExactAudioCopyFreeDBPlugin 1.0
#
DISCID=a30b350c
DTITLE=Everything But The Girl - Worldwide
DYEAR=1992
DGENRE=Blues
TTITLE0=Old Friends
TTITLE1=Understanding
TTITLE2=You Lift Me Up
TTITLE3=Talk To Me Like The Sea
TTITLE4=British Summertime
TTITLE5=Love Is Strange
TTITLE6=Twin Cities
TTITLE7=Frozen River
TTITLE8=One Place
TTITLE9=Politics Aside
TTITLE10=Boxing And Pop Music
TTITLE11=Feel Alright
EXTD=
EXTT0=
EXTT1=
EXTT2=
EXTT3=
EXTT4=
EXTT5=
EXTT6=
EXTT7=
EXTT8=
EXTT9=
EXTT10=
EXTT11=
PLAYORDER=
